PathFileType	4	(X/Y/Z)	c:/Users/goper/Files/vsCode/490R/osim_files/C08/C08_Fast_06.trc
DataRate	CameraRate	NumFrames	NumMarkers	Units                	OrigDataRate	OrigDataStartFrame	OrigNumFrames
250.00	250.00	7	36	mm	250.0	1100	2198
                Frame#	Time	LPSIS			LASIS			LTH1			LTH2			LTH3			LTH4			LLFE			LMFE			LSH1			LSH2			LSH3			LSH4			LLMAL			LMMAL			LCAL			LMTP5			LTOE			LMTP1			RPSIS			RASIS			RTH1			RTH2			RTH3			RTH4			RLFE			RMFE			RSH1			RSH2			RSH3			RSH4			RLMAL			RMMAL			RCAL			RMTP1			RTOE			RMTP5		
		X1	Y1	Z1	X2	Y2	Z2	X3	Y3	Z3	X4	Y4	Z4	X5	Y5	Z5	X6	Y6	Z6	X7	Y7	Z7	X8	Y8	Z8	X9	Y9	Z9	X10	Y10	Z10	X11	Y11	Z11	X12	Y12	Z12	X13	Y13	Z13	X14	Y14	Z14	X15	Y15	Z15	X16	Y16	Z16	X17	Y17	Z17	X18	Y18	Z18	X19	Y19	Z19	X20	Y20	Z20	X21	Y21	Z21	X22	Y22	Z22	X23	Y23	Z23	X24	Y24	Z24	X25	Y25	Z25	X26	Y26	Z26	X27	Y27	Z27	X28	Y28	Z28	X29	Y29	Z29	X30	Y30	Z30	X31	Y31	Z31	X32	Y32	Z32	X33	Y33	Z33	X34	Y34	Z34	X35	Y35	Z35	X36	Y36	Z36

1100	4.39600	-848.16846	1053.90125	196.72653	-1054.68823	1020.80847	274.03864	-1055.04858	750.23962	363.03363	-1084.60461	677.61896	350.74640	-1112.83167	608.66919	343.89429	-1155.89331	712.12366	334.11014	-1124.00854	562.54797	336.23083	-1145.80212	554.99194	209.26421	-1042.01172	471.69046	338.21277	-1031.58838	427.21399	341.73587	-1099.52319	451.70786	347.45041	-1079.52148	410.22302	346.57199	-943.75940	164.01367	295.08789	-977.73309	160.57980	213.44914	-883.03302	162.46840	232.59444	-1025.30481	68.34843	338.42419	-1094.13354	71.21384	287.32819	-1064.14514	57.73400	232.74234	-849.17767	1053.27942	136.28954	-1041.75439	1017.99347	41.67059	-967.04083	751.70868	-8.80907	-961.68884	674.13397	11.57522	-953.47858	596.58331	25.17982	-1035.20227	675.27582	39.37503	-951.69537	524.26154	43.15944	-947.46393	522.19525	169.54597	-887.80243	445.41177	28.10752	-889.58783	400.56519	25.08359	-948.82507	440.03262	37.88291	-942.44318	395.80920	33.84854	-851.81635	104.15825	92.75471	-883.40021	107.48402	180.21181	-792.90845	81.14832	164.23799	-1005.55133	42.94025	164.44200	-1023.27875	61.01930	109.95525	-968.42371	44.68245	51.57056
1101	4.40000	-852.88190	1053.78003	197.04865	-1059.51685	1020.35229	273.86780	-1061.28052	750.55627	362.71973	-1090.96985	677.99377	350.15402	-1119.38940	609.14850	343.04437	-1161.90820	712.71539	332.93207	-1130.73999	563.02045	335.31924	-1151.57361	555.33636	208.29581	-1049.23291	469.97012	335.51553	-1040.52881	425.65970	341.18970	-1107.76172	451.56042	346.87292	-1088.68909	409.62299	346.11520	-958.48315	160.16576	295.31464	-992.62604	157.31709	213.72610	-897.83319	157.01871	232.84363	-1042.30029	66.65008	339.06027	-1111.01990	70.96206	287.98587	-1081.45215	56.53650	233.48405	-853.65344	1053.15381	136.60033	-1046.86755	1017.80023	41.15793	-969.82550	751.58685	-8.87257	-963.89929	674.06964	11.55138	-955.17407	596.58044	25.24646	-1037.88867	674.57562	39.35521	-952.86719	524.19849	43.09209	-948.76001	521.84003	166.79335	-888.56329	445.64612	28.17340	-890.20441	400.75656	25.15038	-949.63007	440.09909	37.89380	-943.12433	395.87885	33.82728	-851.93439	104.35247	92.84897	-883.60333	107.59058	180.27734	-793.04559	81.30336	164.36699	-1005.60010	42.93525	164.42343	-1023.31451	60.94150	109.91434	-968.43103	44.68330	51.55519
1102	4.40400	-857.58252	1053.62280	197.33003	-1064.41187	1019.88287	273.76962	-1067.52344	750.80542	362.42648	-1097.85840	678.09198	349.21069	-1125.77173	609.57861	342.23108	-1167.61267	713.34760	332.21170	-1137.32349	563.45013	334.40231	-1157.16968	555.61334	207.32283	-1057.87500	468.77713	337.08688	-1049.76233	424.30121	341.02277	-1115.87402	451.34369	346.37503	-1097.77649	408.99014	345.67474	-973.33453	156.35468	295.55154	-1007.53973	154.11372	213.96802	-912.90717	151.46550	233.04013	-1059.33813	65.07071	339.67963	-1127.86719	70.81408	288.63525	-1098.62549	55.49110	234.12823	-858.19897	1053.02405	136.92853	-1051.23303	1017.27563	40.79685	-972.54803	751.43005	-8.93603	-966.15881	673.93445	11.56690	-956.85278	596.53186	25.28218	-1039.77332	674.23419	39.27829	-954.04370	524.12524	43.05521	-950.06909	521.78900	169.04718	-889.34216	445.84515	28.26352	-890.84857	400.97052	25.22363	-950.40186	440.13687	37.87224	-943.74036	395.93613	33.77812	-852.08350	104.51608	92.92412	-883.78900	107.70929	180.39111	-793.22717	81.46544	164.46443	-1005.65204	42.92536	164.40260	-1023.34680	60.88891	109.88158	-968.42975	44.65935	51.54762
1103	4.40800	-862.32263	1053.37854	197.68762	-1069.25513	1019.33392	273.71988	-1073.58960	750.96326	362.17136	-1104.03442	678.29321	348.59229	-1132.00281	609.92529	341.36176	-1173.50476	713.83087	331.12198	-1144.14038	564.23370	333.47687	-1162.72913	555.77258	206.35060	-1065.42053	467.11002	337.65979	-1057.66907	422.46594	340.37701	-1123.98389	450.95932	345.91052	-1106.89734	408.27792	345.29651	-988.32690	152.62721	295.81711	-1023.64532	151.66991	213.02063	-928.00146	146.16296	233.08926	-1076.42334	63.64137	340.29501	-1144.78394	70.83308	289.22015	-1115.98816	54.60704	234.69299	-862.73969	1052.80225	137.29544	-1054.68176	1016.42633	40.67069	-975.27368	751.29010	-9.02796	-968.31915	673.81647	11.53629	-958.57434	596.44043	25.34048	-1042.05322	673.69232	39.20967	-955.22339	524.03894	43.03751	-951.46356	521.80597	166.67931	-890.13513	446.05032	28.34340	-891.53497	401.19333	25.29287	-951.22095	440.17868	37.82557	-944.39392	395.99677	33.73753	-852.17529	104.73318	93.03217	-883.99731	107.82540	180.48840	-793.35809	81.62283	164.58601	-1005.65759	42.92369	164.36781	-1023.37531	60.80775	109.83146	-968.39252	44.63963	51.49762
1104	4.41200	-867.03137	1053.10974	197.97850	-1074.09741	1018.72565	273.71170	-1079.55896	750.99316	361.92340	-1110.00818	678.46741	347.95068	-1138.12268	610.15002	340.47513	-1179.20154	714.20355	330.05530	-1150.41968	564.49078	332.52109	-1168.35388	555.85876	205.41100	-1073.16858	465.38617	336.33923	-1064.53772	418.40607	337.67905	-1132.02490	450.56348	345.42615	-1115.91541	407.40250	344.56125	-1003.31360	149.00143	296.09851	-1038.33948	148.78423	213.44829	-943.57587	141.21204	233.34573	-1093.48840	62.31614	340.87781	-1160.93274	70.66461	289.69720	-1133.30957	53.78727	235.34523	-867.27368	1052.53845	137.63364	-1059.75916	1016.07758	40.11651	-978.05481	751.06940	-9.10498	-970.54871	673.70538	11.51466	-960.30066	596.39374	25.33276	-1044.61023	673.15442	39.12194	-956.47083	523.94006	42.96108	-952.81830	521.85052	166.70642	-890.98700	446.27609	28.42725	-892.18518	401.42429	25.33958	-952.03107	440.19452	37.77486	-945.04718	396.00781	33.74610	-852.32446	104.89782	93.09157	-883.90088	107.96975	180.69032	-793.50208	81.78091	164.66197	-1005.70453	42.92869	164.34039	-1023.63708	60.71313	109.78472	-968.34735	44.63468	51.43469
1105	4.41600	-871.72607	1052.77515	198.26462	-1078.95850	1018.03973	273.73935	-1085.14343	750.95154	361.48630	-1115.87317	678.53601	347.34912	-1144.00745	610.33179	339.63312	-1184.81372	714.46191	328.93018	-1156.49304	564.89423	331.37604	-1173.69006	555.88403	204.43623	-1080.67920	463.39999	335.75812	-1072.27405	416.42883	337.03928	-1139.90930	450.08719	345.02637	-1124.86218	406.58255	344.22314	-1018.15283	145.49747	296.41656	-1053.38208	145.87357	213.62233	-957.65637	135.83345	233.87384	-1110.56042	61.14169	341.43988	-1178.52441	71.11523	290.37155	-1150.55701	53.07070	235.92227	-871.82843	1052.24548	137.98064	-1063.98853	1015.42761	39.80048	-980.78589	750.87842	-9.17212	-972.78973	673.57074	11.48258	-962.05817	596.34491	25.34084	-1046.77441	672.51691	39.06469	-957.56842	524.03534	42.81449	-954.07031	521.76935	169.07812	-891.87885	446.47394	28.54058	-892.85864	401.62906	25.40521	-952.84369	440.17352	37.74794	-945.78186	396.04111	33.66956	-852.44800	105.07439	93.21009	-884.00385	108.08165	180.77386	-793.62720	81.94263	164.72166	-1005.75165	43.21275	163.88770	-1023.39508	60.70094	109.67059	-968.32178	44.59195	51.39844
1106	4.42000	-876.41077	1052.39368	198.56926	-1083.77051	1017.27734	273.77710	-1090.54944	750.86285	360.96558	-1121.48132	678.54633	346.70349	-1149.72095	610.38605	338.74429	-1190.24280	714.59387	327.89215	-1162.28125	564.70404	330.58514	-1179.04919	555.76990	203.48700	-1088.17810	461.42661	335.76733	-1081.85803	414.09628	337.22296	-1147.81079	449.52606	344.63580	-1133.75317	405.70517	343.94312	-1033.14807	142.12753	296.74698	-1068.75134	142.85883	213.83766	-973.82233	130.46733	233.65918	-1127.63489	60.06604	341.98291	-1195.22937	71.40487	290.82886	-1167.88464	52.60080	236.45427	-876.31158	1051.92957	138.31795	-1068.23364	1014.77209	39.49355	-983.53058	750.66125	-9.26186	-975.06592	673.40741	11.44910	-963.78571	596.22546	25.34712	-1049.05359	671.92993	38.99044	-958.84943	524.00073	42.72198	-955.50848	521.79755	166.57779	-892.75671	446.70349	28.57441	-893.68127	401.82986	25.44688	-953.71899	440.16989	37.66438	-946.51752	396.08887	33.57790	-852.56281	105.24291	93.30258	-884.12616	108.19259	180.84174	-793.69092	82.12917	164.79446	-1005.76257	43.20702	163.83682	-1023.42468	60.54220	109.68098	-968.30121	44.55814	51.34329
